<?xml version="1.0" encoding="utf-8"?>
<!-- Generator: Adobe Illustrator 24.3.0, SVG Export Plug-In . SVG Version: 6.00 Build 0)  -->
<svg version="1.1" id="Layer_1" xmlns="http://www.w3.org/2000/svg" xmlns:xlink="http://www.w3.org/1999/xlink" x="0px" y="0px"
	 viewBox="0 0 2000 2000" style="enable-background:new 0 0 2000 2000;" xml:space="preserve">
<style type="text/css">
	.st0{fill:#232B45;}
	.st1{fill:#24B179;}
</style>
<g>
	<path class="st0" d="M2712.02,3450.77c-3.09,2.18-6.87,3.27-11.35,3.27c-4.14,0-7.72-0.95-10.75-2.85
		c-3.03-1.9-5.35-4.65-6.97-8.24c-1.61-3.6-2.42-7.83-2.42-12.71c0-4.87,0.81-9.11,2.42-12.7c1.61-3.6,3.92-6.34,6.93-8.24
		c3-1.9,6.54-2.85,10.62-2.85c4.36,0,8.07,1.09,11.13,3.27c3.06,2.18,5.27,5.31,6.63,9.39l6.88-1.19c-1.25-3.91-3.05-7.22-5.4-9.94
		c-2.35-2.72-5.16-4.79-8.41-6.2c-3.26-1.41-6.87-2.12-10.83-2.12c-5.44,0-10.26,1.27-14.45,3.82c-4.19,2.55-7.44,6.15-9.73,10.79
		c-2.29,4.65-3.44,9.97-3.44,15.98c0,6.06,1.15,11.4,3.44,16.02c2.29,4.62,5.55,8.2,9.77,10.75c4.22,2.55,9.08,3.82,14.57,3.82
		c4.02,0,7.68-0.71,10.96-2.13c3.29-1.42,6.12-3.48,8.5-6.2c2.38-2.72,4.19-6.03,5.44-9.94l-6.88-1.19
		C2717.33,3445.46,2715.1,3448.59,2712.02,3450.77z"/>
	<path class="st0" d="M2804.69,3403.48c-4.14-2.55-8.92-3.82-14.36-3.82c-5.38,0-10.16,1.27-14.32,3.82
		c-4.16,2.55-7.38,6.15-9.64,10.79c-2.27,4.65-3.4,9.97-3.4,15.98c0,6.01,1.13,11.33,3.4,15.98c2.26,4.65,5.48,8.24,9.64,10.79
		c4.16,2.55,8.94,3.82,14.32,3.82c5.44,0,10.23-1.27,14.36-3.82c4.13-2.55,7.35-6.15,9.64-10.79c2.3-4.65,3.44-9.97,3.44-15.98
		c0-6-1.15-11.33-3.44-15.98C2812.04,3409.63,2808.82,3406.03,2804.69,3403.48z M2807.75,3442.91c-1.59,3.57-3.87,6.32-6.84,8.24
		c-2.97,1.93-6.5,2.89-10.58,2.89c-4.02,0-7.52-0.96-10.49-2.89c-2.97-1.93-5.26-4.69-6.84-8.28c-1.59-3.6-2.38-7.8-2.38-12.62
		c0-4.81,0.79-9.02,2.38-12.62c1.59-3.6,3.87-6.36,6.84-8.29c2.97-1.93,6.47-2.89,10.49-2.89c4.08,0,7.61,0.96,10.58,2.89
		c2.97,1.93,5.25,4.67,6.84,8.24c1.59,3.57,2.38,7.79,2.38,12.66C2810.13,3435.12,2809.33,3439.34,2807.75,3442.91z"/>
	<path class="st0" d="M2890.43,3433.09c2.66-1.5,4.81-3.58,6.46-6.25c1.64-2.66,2.46-5.64,2.46-8.92c0-3.28-0.81-6.26-2.42-8.92
		c-1.61-2.66-3.84-4.75-6.67-6.25c-2.83-1.5-6.03-2.25-9.6-2.25h-21.24v59.49h7.65v-24.64h13.22l14.74,24.64h8.58l-15.73-25.71
		C2888.74,3433.95,2889.6,3433.57,2890.43,3433.09z M2880.23,3407.3c2.38,0,4.43,0.42,6.16,1.27c1.73,0.85,3.04,2.07,3.95,3.65
		c0.91,1.59,1.36,3.48,1.36,5.69c0,2.21-0.45,4.11-1.36,5.69c-0.91,1.59-2.22,2.8-3.95,3.65c-1.73,0.85-3.78,1.28-6.16,1.28h-13.17
		v-21.24H2880.23z"/>
	<path class="st0" d="M2973.58,3402.88c-2.97-1.59-6.33-2.38-10.07-2.38h-20.4v59.49h7.65v-22.94h12.75c3.74,0,7.1-0.79,10.07-2.38
		c2.97-1.59,5.3-3.77,6.97-6.54c1.67-2.78,2.51-5.89,2.51-9.35c0-3.45-0.84-6.57-2.51-9.35
		C2978.88,3406.65,2976.56,3404.47,2973.58,3402.88z M2973.97,3424.94c-0.96,1.73-2.37,3.05-4.21,3.95
		c-1.84,0.91-4.07,1.36-6.67,1.36h-12.32v-22.94h12.32c3.91,0,6.94,1.02,9.09,3.06c2.15,2.04,3.23,4.84,3.23,8.41
		C2975.41,3421.15,2974.93,3423.21,2973.97,3424.94z"/>
	<path class="st0" d="M3063.03,3403.48c-4.14-2.55-8.92-3.82-14.36-3.82c-5.38,0-10.16,1.27-14.32,3.82
		c-4.16,2.55-7.38,6.15-9.64,10.79c-2.27,4.65-3.4,9.97-3.4,15.98c0,6.01,1.13,11.33,3.4,15.98c2.26,4.65,5.48,8.24,9.64,10.79
		c4.16,2.55,8.94,3.82,14.32,3.82c5.44,0,10.23-1.27,14.36-3.82c4.13-2.55,7.35-6.15,9.64-10.79c2.29-4.65,3.44-9.97,3.44-15.98
		c0-6-1.15-11.33-3.44-15.98C3070.38,3409.63,3067.16,3406.03,3063.03,3403.48z M3066.08,3442.91c-1.59,3.57-3.87,6.32-6.84,8.24
		c-2.97,1.93-6.5,2.89-10.58,2.89c-4.02,0-7.52-0.96-10.49-2.89c-2.97-1.93-5.26-4.69-6.84-8.28c-1.59-3.6-2.38-7.8-2.38-12.62
		c0-4.81,0.79-9.02,2.38-12.62c1.59-3.6,3.87-6.36,6.84-8.29c2.97-1.93,6.47-2.89,10.49-2.89c4.08,0,7.61,0.96,10.58,2.89
		c2.97,1.93,5.25,4.67,6.84,8.24c1.59,3.57,2.38,7.79,2.38,12.66C3068.46,3435.12,3067.67,3439.34,3066.08,3442.91z"/>
	<path class="st0" d="M3195.59,3429.48c-2.55-1.02-5.89-2.04-10.03-3.06c-3.34-0.85-5.98-1.61-7.9-2.3
		c-1.93-0.68-3.54-1.7-4.84-3.06c-1.3-1.36-1.96-3.17-1.96-5.44c0-2.04,0.54-3.75,1.62-5.14c1.07-1.39,2.53-2.41,4.38-3.06
		c1.84-0.65,3.95-0.98,6.33-0.98c3.68,0,6.78,0.81,9.31,2.42c2.52,1.61,4.23,4.18,5.14,7.69l6.8-1.19
		c-1.19-4.93-3.63-8.78-7.31-11.56c-3.68-2.78-8.33-4.16-13.94-4.16c-3.8,0-7.21,0.64-10.24,1.91c-3.03,1.27-5.41,3.12-7.14,5.52
		c-1.73,2.41-2.59,5.26-2.59,8.54c0,3.8,0.89,6.79,2.68,8.97c1.78,2.18,3.95,3.8,6.5,4.84c2.55,1.05,5.86,2.05,9.94,3.02
		c3.4,0.85,6.08,1.63,8.03,2.34c1.96,0.71,3.58,1.74,4.89,3.1c1.3,1.36,1.95,3.2,1.95,5.52c0,2.44-0.52,4.43-1.57,5.99
		c-1.05,1.56-2.56,2.72-4.55,3.48c-1.98,0.77-4.33,1.15-7.05,1.15c-4.19,0-7.75-0.91-10.66-2.72c-2.92-1.81-5.03-4.84-6.33-9.09
		l-6.8,1.19c1.47,5.61,4.28,9.91,8.41,12.92c4.14,3,9.26,4.5,15.38,4.5c4.25,0,7.93-0.68,11.05-2.04c3.12-1.36,5.52-3.34,7.22-5.95
		s2.55-5.75,2.55-9.43c0-3.8-0.91-6.81-2.72-9.05C3200.32,3432.13,3198.14,3430.5,3195.59,3429.48z"/>
	<path class="st0" d="M3281.81,3450.77c-3.09,2.18-6.87,3.27-11.35,3.27c-4.14,0-7.72-0.95-10.75-2.85
		c-3.03-1.9-5.35-4.65-6.97-8.24c-1.61-3.6-2.42-7.83-2.42-12.71c0-4.87,0.81-9.11,2.42-12.7c1.61-3.6,3.92-6.34,6.93-8.24
		c3-1.9,6.54-2.85,10.62-2.85c4.36,0,8.07,1.09,11.13,3.27c3.06,2.18,5.27,5.31,6.63,9.39l6.88-1.19c-1.25-3.91-3.05-7.22-5.4-9.94
		c-2.35-2.72-5.16-4.79-8.41-6.2c-3.26-1.41-6.87-2.12-10.83-2.12c-5.44,0-10.26,1.27-14.45,3.82c-4.19,2.55-7.44,6.15-9.73,10.79
		c-2.29,4.65-3.44,9.97-3.44,15.98c0,6.06,1.15,11.4,3.44,16.02c2.3,4.62,5.55,8.2,9.77,10.75c4.22,2.55,9.08,3.82,14.57,3.82
		c4.02,0,7.68-0.71,10.96-2.13c3.29-1.42,6.12-3.48,8.5-6.2c2.38-2.72,4.19-6.03,5.44-9.94l-6.88-1.19
		C3287.12,3445.46,3284.89,3448.59,3281.81,3450.77z"/>
	<rect x="3336.58" y="3400.5" class="st0" width="7.48" height="59.49"/>
	<polygon class="st0" points="3396.32,3433.22 3422.24,3433.22 3422.24,3426.42 3396.32,3426.42 3396.32,3407.3 3425.21,3407.3 
		3425.21,3400.5 3388.67,3400.5 3388.67,3459.99 3425.63,3459.99 3425.63,3453.19 3396.32,3453.19 	"/>
	<polygon class="st0" points="3506.11,3448.69 3505.69,3448.69 3477.05,3400.5 3468.12,3400.5 3468.12,3459.99 3475.6,3459.99 
		3475.6,3411.81 3476.03,3411.81 3504.67,3459.99 3513.59,3459.99 3513.59,3400.5 3506.11,3400.5 	"/>
	<polygon class="st0" points="3562.2,3452.77 3595.17,3407.73 3595.17,3400.5 3554.8,3400.5 3554.8,3407.3 3586.5,3407.3 
		3586.5,3407.73 3553.53,3452.77 3553.53,3459.99 3596.44,3459.99 3596.44,3453.19 3562.2,3453.19 	"/>
	<path class="st0" d="M3673.27,3459.99h7.73l-20.31-59.49h-9.52l-20.31,59.49h7.48l5.05-15.3h24.83L3673.27,3459.99z
		 M3645.49,3438.32l10.1-30.59h0.42l10.1,30.59H3645.49z"/>
</g>
<g>
	<path class="st1" d="M2856.02,3536.93c-4.05,0-7.44-0.99-10.17-2.98c-2.73-1.99-4.59-4.83-5.56-8.54l4.49-0.79
		c0.86,2.81,2.26,4.81,4.19,6.01c1.93,1.2,4.28,1.8,7.05,1.8c1.8,0,3.35-0.25,4.66-0.76c1.31-0.51,2.31-1.27,3.01-2.3
		c0.69-1.03,1.04-2.35,1.04-3.96c0-1.54-0.43-2.75-1.29-3.65c-0.86-0.9-1.94-1.58-3.23-2.05c-1.29-0.47-3.06-0.98-5.31-1.54
		c-2.7-0.64-4.89-1.3-6.57-1.99c-1.69-0.69-3.12-1.76-4.3-3.2c-1.18-1.44-1.77-3.42-1.77-5.93c0-2.17,0.57-4.05,1.71-5.65
		c1.14-1.59,2.71-2.81,4.72-3.65c2-0.84,4.26-1.26,6.77-1.26c3.71,0,6.78,0.92,9.21,2.75c2.43,1.83,4.04,4.38,4.83,7.64l-4.49,0.79
		c-0.6-2.32-1.73-4.02-3.4-5.08c-1.67-1.07-3.72-1.6-6.15-1.6c-1.57,0-2.97,0.22-4.19,0.65c-1.22,0.43-2.18,1.11-2.89,2.02
		c-0.71,0.92-1.07,2.05-1.07,3.4c0,1.5,0.43,2.7,1.29,3.59c0.86,0.9,1.93,1.57,3.2,2.02c1.27,0.45,3.01,0.96,5.23,1.52
		c2.73,0.67,4.94,1.35,6.63,2.02c1.69,0.67,3.13,1.75,4.33,3.23c1.2,1.48,1.8,3.47,1.8,5.98c0,2.44-0.56,4.51-1.68,6.24
		c-1.12,1.72-2.72,3.03-4.78,3.93C2861.26,3536.48,2858.83,3536.93,2856.02,3536.93z"/>
	<path class="st1" d="M2896.19,3536.37l13.43-39.32h6.29l13.43,39.32h-5.11l-11.4-34.55h-0.28l-11.4,34.55H2896.19z
		 M2902.08,3526.26l1.12-4.21h19.21l1.12,4.21H2902.08z"/>
	<path class="st1" d="M2971.46,3536.93c-2.96,0-5.53-0.65-7.72-1.94c-2.19-1.29-3.89-3.14-5.08-5.53c-1.2-2.4-1.8-5.24-1.8-8.54
		v-23.87h5.06v23.59c0,2.58,0.37,4.75,1.1,6.49c0.73,1.74,1.81,3.06,3.23,3.96c1.42,0.9,3.16,1.35,5.22,1.35c3.07,0,5.43-1,7.08-3
		c1.65-2,2.47-4.93,2.47-8.79v-23.59h5.06v23.87c0,3.29-0.6,6.14-1.8,8.54c-1.2,2.4-2.89,4.24-5.08,5.53
		C2976.99,3536.29,2974.42,3536.93,2971.46,3536.93z M2968.37,3493.68l5.11-8.43h5.56v0.28l-6.74,8.15H2968.37z"/>
	<path class="st1" d="M3018.36,3536.37v-39.32H3031c3.71,0,6.98,0.82,9.83,2.47c2.84,1.65,5.06,3.96,6.63,6.94
		c1.57,2.98,2.36,6.4,2.36,10.25c0,3.86-0.79,7.27-2.36,10.25c-1.57,2.98-3.78,5.29-6.63,6.94c-2.85,1.65-6.12,2.47-9.83,2.47
		H3018.36z M3030.72,3531.88c2.88,0,5.38-0.62,7.5-1.85c2.12-1.24,3.74-2.99,4.86-5.25c1.12-2.27,1.68-4.95,1.68-8.06
		c0-3.11-0.56-5.79-1.68-8.06c-1.12-2.27-2.74-4.02-4.86-5.25c-2.12-1.24-4.61-1.85-7.5-1.85h-7.3v30.33H3030.72z"/>
	<path class="st1" d="M3080.72,3536.37v-39.32h24.15v4.49h-19.1v30.33h19.38v4.49H3080.72z M3083.81,3518.68v-4.49h19.1v4.49
		H3083.81z"/>
	<path class="st1" d="M3173.68,3536.37v-39.32h12.64c3.71,0,6.98,0.82,9.83,2.47c2.84,1.65,5.06,3.96,6.63,6.94
		c1.57,2.98,2.36,6.4,2.36,10.25c0,3.86-0.79,7.27-2.36,10.25c-1.57,2.98-3.78,5.29-6.63,6.94c-2.85,1.65-6.12,2.47-9.83,2.47
		H3173.68z M3186.04,3531.88c2.88,0,5.38-0.62,7.5-1.85c2.12-1.24,3.74-2.99,4.86-5.25c1.12-2.27,1.68-4.95,1.68-8.06
		c0-3.11-0.56-5.79-1.68-8.06c-1.12-2.27-2.74-4.02-4.86-5.25c-2.12-1.24-4.61-1.85-7.5-1.85h-7.3v30.33H3186.04z"/>
	<path class="st1" d="M3236.32,3536.37v-39.32h4.94v39.32H3236.32z"/>
	<path class="st1" d="M3290.97,3536.93c-3.6,0-6.8-0.84-9.61-2.53c-2.81-1.69-5-4.05-6.57-7.11c-1.57-3.05-2.36-6.58-2.36-10.59
		c0-3.97,0.78-7.48,2.33-10.53c1.55-3.05,3.75-5.43,6.6-7.13c2.85-1.7,6.14-2.56,9.89-2.56c2.7,0,5.14,0.47,7.33,1.41
		c2.19,0.94,4.07,2.3,5.65,4.1c1.57,1.8,2.77,3.99,3.6,6.57l-4.55,0.79c-0.9-2.7-2.39-4.77-4.47-6.21c-2.08-1.44-4.6-2.16-7.56-2.16
		c-2.85,0-5.3,0.64-7.36,1.91c-2.06,1.27-3.64,3.1-4.75,5.48c-1.11,2.38-1.66,5.16-1.66,8.34c0,3.26,0.56,6.07,1.68,8.43
		c1.12,2.36,2.7,4.17,4.72,5.42s4.38,1.88,7.08,1.88c2.32,0,4.42-0.46,6.29-1.38c1.87-0.92,3.35-2.25,4.44-3.99
		c1.08-1.74,1.63-3.79,1.63-6.15v-1.46l2.53,0.9h-12.64v-4.21h15.17v20.22h-3.37l-1.4-10.67h2.19c-0.71,2.51-1.77,4.61-3.17,6.29
		c-1.4,1.68-3.09,2.93-5.06,3.74C3295.61,3536.53,3293.41,3536.93,3290.97,3536.93z"/>
	<path class="st1" d="M3340.69,3536.37v-39.32h4.94v39.32H3340.69z"/>
	<path class="st1" d="M3388.04,3536.37v-34.83h-13.2v-4.49h31.46v4.49h-13.2v34.83H3388.04z"/>
	<path class="st1" d="M3428.21,3536.37l13.43-39.32h6.29l13.43,39.32h-5.11l-11.4-34.55h-0.28l-11.4,34.55H3428.21z M3434.1,3526.26
		l1.12-4.21h19.21l1.12,4.21H3434.1z"/>
	<path class="st1" d="M3490.28,3536.37v-39.32h5.06v34.83h18.26v4.49H3490.28z"/>
</g>
<g>
	<g>
		<path class="st0" d="M2960.71,995.48c-3.09,2.18-6.87,3.27-11.35,3.27c-4.14,0-7.72-0.95-10.75-2.85
			c-3.03-1.9-5.35-4.64-6.97-8.24c-1.61-3.6-2.42-7.83-2.42-12.71c0-4.87,0.81-9.11,2.42-12.7c1.61-3.6,3.92-6.34,6.93-8.24
			c3-1.9,6.54-2.85,10.62-2.85c4.36,0,8.07,1.09,11.13,3.27c3.06,2.18,5.27,5.31,6.63,9.39l6.88-1.19c-1.25-3.91-3.05-7.22-5.4-9.94
			c-2.35-2.72-5.16-4.79-8.41-6.2c-3.26-1.41-6.87-2.12-10.83-2.12c-5.44,0-10.26,1.27-14.45,3.82c-4.19,2.55-7.44,6.15-9.73,10.79
			c-2.29,4.65-3.44,9.97-3.44,15.98c0,6.06,1.15,11.4,3.44,16.02c2.3,4.62,5.55,8.2,9.77,10.75c4.22,2.55,9.08,3.82,14.57,3.82
			c4.02,0,7.68-0.71,10.96-2.13c3.28-1.42,6.12-3.48,8.5-6.2c2.38-2.72,4.19-6.03,5.44-9.94l-6.88-1.19
			C2966.02,990.16,2963.8,993.29,2960.71,995.48z"/>
		<path class="st0" d="M3053.38,948.18c-4.14-2.55-8.92-3.82-14.36-3.82c-5.38,0-10.16,1.27-14.32,3.82
			c-4.16,2.55-7.38,6.15-9.64,10.79c-2.27,4.65-3.4,9.97-3.4,15.98c0,6.01,1.13,11.33,3.4,15.98c2.26,4.65,5.48,8.24,9.64,10.79
			c4.16,2.55,8.94,3.82,14.32,3.82c5.44,0,10.23-1.27,14.36-3.82c4.13-2.55,7.35-6.15,9.64-10.79c2.29-4.64,3.44-9.97,3.44-15.98
			c0-6-1.15-11.33-3.44-15.98C3060.73,954.33,3057.52,950.73,3053.38,948.18z M3056.44,987.61c-1.59,3.57-3.87,6.32-6.84,8.24
			c-2.97,1.93-6.5,2.89-10.58,2.89c-4.02,0-7.52-0.96-10.49-2.89c-2.97-1.93-5.26-4.69-6.84-8.28c-1.59-3.6-2.38-7.8-2.38-12.62
			c0-4.81,0.79-9.02,2.38-12.62c1.59-3.6,3.87-6.36,6.84-8.29c2.97-1.93,6.47-2.89,10.49-2.89c4.08,0,7.61,0.96,10.58,2.89
			c2.97,1.93,5.25,4.67,6.84,8.24c1.59,3.57,2.38,7.79,2.38,12.66C3058.82,979.83,3058.03,984.05,3056.44,987.61z"/>
		<path class="st0" d="M3139.13,977.8c2.66-1.5,4.81-3.58,6.46-6.25c1.64-2.66,2.46-5.64,2.46-8.92c0-3.28-0.81-6.26-2.42-8.92
			c-1.61-2.66-3.84-4.74-6.67-6.25c-2.83-1.5-6.03-2.25-9.6-2.25h-21.24v59.49h7.65v-24.64h13.22l14.74,24.64h8.58l-15.73-25.71
			C3137.43,978.66,3138.29,978.27,3139.13,977.8z M3128.93,952.01c2.38,0,4.43,0.42,6.16,1.27c1.73,0.85,3.04,2.07,3.95,3.65
			c0.91,1.59,1.36,3.48,1.36,5.69c0,2.21-0.45,4.11-1.36,5.69c-0.91,1.59-2.22,2.8-3.95,3.65c-1.73,0.85-3.78,1.27-6.16,1.27h-13.17
			v-21.24H3128.93z"/>
		<path class="st0" d="M3222.28,947.59c-2.97-1.59-6.33-2.38-10.07-2.38h-20.4v59.49h7.65v-22.94h12.75c3.74,0,7.1-0.79,10.07-2.38
			c2.97-1.59,5.3-3.77,6.97-6.54c1.67-2.78,2.51-5.89,2.51-9.35c0-3.45-0.84-6.57-2.51-9.35
			C3227.57,951.36,3225.25,949.18,3222.28,947.59z M3222.66,969.64c-0.96,1.73-2.37,3.05-4.21,3.95c-1.84,0.91-4.07,1.36-6.67,1.36
			h-12.32v-22.94h12.32c3.91,0,6.94,1.02,9.09,3.06c2.15,2.04,3.23,4.84,3.23,8.41C3224.1,965.86,3223.62,967.91,3222.66,969.64z"/>
		<path class="st0" d="M3311.72,948.18c-4.14-2.55-8.92-3.82-14.36-3.82c-5.38,0-10.16,1.27-14.32,3.82
			c-4.16,2.55-7.38,6.15-9.64,10.79c-2.27,4.65-3.4,9.97-3.4,15.98c0,6.01,1.13,11.33,3.4,15.98c2.26,4.65,5.48,8.24,9.64,10.79
			c4.16,2.55,8.94,3.82,14.32,3.82c5.44,0,10.22-1.27,14.36-3.82c4.13-2.55,7.35-6.15,9.64-10.79c2.3-4.64,3.44-9.97,3.44-15.98
			c0-6-1.15-11.33-3.44-15.98C3319.07,954.33,3315.85,950.73,3311.72,948.18z M3314.78,987.61c-1.59,3.57-3.87,6.32-6.84,8.24
			c-2.97,1.93-6.5,2.89-10.58,2.89c-4.02,0-7.52-0.96-10.5-2.89c-2.97-1.93-5.26-4.69-6.84-8.28c-1.59-3.6-2.38-7.8-2.38-12.62
			c0-4.81,0.79-9.02,2.38-12.62c1.59-3.6,3.87-6.36,6.84-8.29c2.97-1.93,6.47-2.89,10.5-2.89c4.08,0,7.61,0.96,10.58,2.89
			c2.97,1.93,5.25,4.67,6.84,8.24c1.59,3.57,2.38,7.79,2.38,12.66C3317.16,979.83,3316.36,984.05,3314.78,987.61z"/>
		<path class="st0" d="M3444.29,974.19c-2.55-1.02-5.89-2.04-10.03-3.06c-3.34-0.85-5.98-1.61-7.9-2.3
			c-1.93-0.68-3.54-1.7-4.84-3.06c-1.3-1.36-1.96-3.17-1.96-5.44c0-2.04,0.54-3.75,1.62-5.14c1.07-1.39,2.53-2.41,4.38-3.06
			c1.84-0.65,3.95-0.98,6.33-0.98c3.68,0,6.78,0.81,9.31,2.42c2.52,1.61,4.23,4.18,5.14,7.69l6.8-1.19
			c-1.19-4.93-3.63-8.78-7.31-11.56c-3.68-2.78-8.33-4.16-13.94-4.16c-3.8,0-7.21,0.64-10.24,1.91c-3.03,1.27-5.41,3.12-7.14,5.52
			c-1.73,2.41-2.59,5.26-2.59,8.54c0,3.8,0.89,6.79,2.68,8.97c1.78,2.18,3.95,3.8,6.5,4.84c2.55,1.05,5.86,2.05,9.94,3.02
			c3.4,0.85,6.08,1.63,8.03,2.34c1.96,0.71,3.58,1.74,4.89,3.1c1.3,1.36,1.95,3.2,1.95,5.52c0,2.44-0.52,4.43-1.57,5.99
			c-1.05,1.56-2.56,2.72-4.55,3.48c-1.98,0.77-4.33,1.15-7.05,1.15c-4.19,0-7.75-0.91-10.66-2.72c-2.92-1.81-5.03-4.85-6.33-9.09
			l-6.8,1.19c1.47,5.61,4.28,9.91,8.41,12.92c4.14,3,9.26,4.5,15.38,4.5c4.25,0,7.93-0.68,11.05-2.04c3.12-1.36,5.52-3.34,7.22-5.95
			c1.7-2.61,2.55-5.75,2.55-9.43c0-3.8-0.91-6.81-2.72-9.05C3449.02,976.84,3446.84,975.21,3444.29,974.19z"/>
		<path class="st0" d="M3530.5,995.48c-3.09,2.18-6.87,3.27-11.35,3.27c-4.14,0-7.72-0.95-10.75-2.85c-3.03-1.9-5.35-4.64-6.97-8.24
			c-1.61-3.6-2.42-7.83-2.42-12.71c0-4.87,0.81-9.11,2.42-12.7c1.61-3.6,3.92-6.34,6.93-8.24c3-1.9,6.54-2.85,10.62-2.85
			c4.36,0,8.07,1.09,11.13,3.27c3.06,2.18,5.27,5.31,6.63,9.39l6.88-1.19c-1.25-3.91-3.05-7.22-5.4-9.94
			c-2.35-2.72-5.16-4.79-8.41-6.2c-3.26-1.41-6.87-2.12-10.83-2.12c-5.44,0-10.26,1.27-14.45,3.82c-4.19,2.55-7.44,6.15-9.73,10.79
			c-2.29,4.65-3.44,9.97-3.44,15.98c0,6.06,1.15,11.4,3.44,16.02c2.29,4.62,5.55,8.2,9.77,10.75c4.22,2.55,9.08,3.82,14.57,3.82
			c4.02,0,7.68-0.71,10.96-2.13c3.29-1.42,6.12-3.48,8.5-6.2c2.38-2.72,4.19-6.03,5.44-9.94l-6.88-1.19
			C3535.81,990.16,3533.59,993.29,3530.5,995.48z"/>
		<rect x="3585.27" y="945.21" class="st0" width="7.48" height="59.49"/>
		<polygon class="st0" points="3645.01,977.93 3670.93,977.93 3670.93,971.13 3645.01,971.13 3645.01,952.01 3673.9,952.01 
			3673.9,945.21 3637.36,945.21 3637.36,1004.7 3674.33,1004.7 3674.33,997.9 3645.01,997.9 		"/>
		<polygon class="st0" points="3754.8,993.39 3754.38,993.39 3725.74,945.21 3716.82,945.21 3716.82,1004.7 3724.3,1004.7 
			3724.3,956.51 3724.72,956.51 3753.36,1004.7 3762.28,1004.7 3762.28,945.21 3754.8,945.21 		"/>
		<polygon class="st0" points="3810.89,997.47 3843.86,952.43 3843.86,945.21 3803.5,945.21 3803.5,952.01 3835.2,952.01 
			3835.2,952.43 3802.22,997.47 3802.22,1004.7 3845.14,1004.7 3845.14,997.9 3810.89,997.9 		"/>
		<path class="st0" d="M3921.96,1004.7h7.73l-20.31-59.49h-9.52l-20.31,59.49h7.48l5.05-15.3h24.83L3921.96,1004.7z M3894.19,983.03
			l10.1-30.59h0.42l10.1,30.59H3894.19z"/>
	</g>
	<g>
		<path class="st1" d="M3104.72,1081.64c-4.05,0-7.43-0.99-10.17-2.98c-2.73-1.99-4.59-4.83-5.56-8.54l4.49-0.79
			c0.86,2.81,2.26,4.81,4.19,6.01c1.93,1.2,4.28,1.8,7.05,1.8c1.8,0,3.35-0.25,4.66-0.76c1.31-0.51,2.31-1.27,3.01-2.3
			c0.69-1.03,1.04-2.35,1.04-3.96c0-1.54-0.43-2.75-1.29-3.65c-0.86-0.9-1.94-1.58-3.23-2.05c-1.29-0.47-3.06-0.98-5.31-1.54
			c-2.7-0.64-4.89-1.3-6.57-1.99c-1.69-0.69-3.12-1.76-4.3-3.2c-1.18-1.44-1.77-3.42-1.77-5.93c0-2.17,0.57-4.05,1.71-5.65
			c1.14-1.59,2.71-2.81,4.72-3.65c2-0.84,4.26-1.26,6.77-1.26c3.71,0,6.78,0.92,9.21,2.75s4.04,4.38,4.83,7.64l-4.49,0.79
			c-0.6-2.32-1.73-4.02-3.4-5.08c-1.67-1.07-3.72-1.6-6.15-1.6c-1.57,0-2.97,0.22-4.19,0.65c-1.22,0.43-2.18,1.11-2.89,2.02
			c-0.71,0.92-1.07,2.05-1.07,3.4c0,1.5,0.43,2.7,1.29,3.59c0.86,0.9,1.93,1.57,3.2,2.02c1.27,0.45,3.01,0.95,5.23,1.52
			c2.73,0.67,4.94,1.35,6.63,2.02c1.69,0.67,3.13,1.75,4.32,3.23c1.2,1.48,1.8,3.47,1.8,5.98c0,2.44-0.56,4.51-1.68,6.24
			c-1.12,1.72-2.72,3.03-4.78,3.93C3109.96,1081.19,3107.52,1081.64,3104.72,1081.64z"/>
		<path class="st1" d="M3144.88,1081.08l13.43-39.32h6.29l13.43,39.32h-5.11l-11.4-34.55h-0.28l-11.4,34.55H3144.88z
			 M3150.78,1070.97l1.12-4.21h19.21l1.12,4.21H3150.78z"/>
		<path class="st1" d="M3220.15,1081.64c-2.96,0-5.53-0.65-7.72-1.94c-2.19-1.29-3.89-3.14-5.08-5.53c-1.2-2.4-1.8-5.24-1.8-8.54
			v-23.87h5.06v23.59c0,2.58,0.37,4.75,1.1,6.49c0.73,1.74,1.81,3.06,3.23,3.96c1.42,0.9,3.16,1.35,5.22,1.35c3.07,0,5.43-1,7.08-3
			c1.65-2,2.47-4.93,2.47-8.79v-23.59h5.06v23.87c0,3.29-0.6,6.14-1.8,8.54c-1.2,2.4-2.89,4.24-5.08,5.53
			C3225.69,1080.99,3223.11,1081.64,3220.15,1081.64z M3217.06,1038.38l5.11-8.43h5.56v0.28l-6.74,8.15H3217.06z"/>
		<path class="st1" d="M3267.06,1081.08v-39.32h12.64c3.71,0,6.98,0.82,9.83,2.47c2.84,1.65,5.06,3.96,6.63,6.94
			c1.57,2.98,2.36,6.4,2.36,10.25c0,3.86-0.79,7.27-2.36,10.25c-1.57,2.98-3.78,5.29-6.63,6.94c-2.85,1.65-6.12,2.47-9.83,2.47
			H3267.06z M3279.42,1076.58c2.88,0,5.38-0.62,7.5-1.85c2.12-1.24,3.74-2.99,4.86-5.25s1.68-4.95,1.68-8.06
			c0-3.11-0.56-5.79-1.68-8.06c-1.12-2.27-2.74-4.02-4.86-5.25c-2.12-1.24-4.61-1.85-7.5-1.85h-7.3v30.34H3279.42z"/>
		<path class="st1" d="M3329.41,1081.08v-39.32h24.15v4.49h-19.1v30.34h19.38v4.49H3329.41z M3332.5,1063.38v-4.49h19.1v4.49H3332.5
			z"/>
		<path class="st1" d="M3422.38,1081.08v-39.32h12.64c3.71,0,6.98,0.82,9.83,2.47c2.84,1.65,5.06,3.96,6.63,6.94
			c1.57,2.98,2.36,6.4,2.36,10.25c0,3.86-0.79,7.27-2.36,10.25c-1.57,2.98-3.78,5.29-6.63,6.94c-2.85,1.65-6.12,2.47-9.83,2.47
			H3422.38z M3434.74,1076.58c2.88,0,5.38-0.62,7.5-1.85c2.12-1.24,3.74-2.99,4.86-5.25s1.68-4.95,1.68-8.06
			c0-3.11-0.56-5.79-1.68-8.06c-1.12-2.27-2.74-4.02-4.86-5.25c-2.12-1.24-4.62-1.85-7.5-1.85h-7.3v30.34H3434.74z"/>
		<path class="st1" d="M3485.01,1081.08v-39.32h4.94v39.32H3485.01z"/>
		<path class="st1" d="M3539.67,1081.64c-3.6,0-6.8-0.84-9.61-2.53c-2.81-1.69-5-4.05-6.57-7.11c-1.57-3.05-2.36-6.58-2.36-10.59
			c0-3.97,0.78-7.48,2.33-10.53c1.55-3.05,3.75-5.43,6.6-7.13c2.85-1.7,6.14-2.56,9.89-2.56c2.7,0,5.14,0.47,7.33,1.41
			c2.19,0.94,4.07,2.3,5.65,4.1c1.57,1.8,2.77,3.99,3.6,6.57l-4.55,0.79c-0.9-2.7-2.39-4.77-4.47-6.21
			c-2.08-1.44-4.6-2.16-7.56-2.16c-2.85,0-5.3,0.64-7.36,1.91c-2.06,1.27-3.64,3.1-4.75,5.48c-1.11,2.38-1.66,5.16-1.66,8.34
			c0,3.26,0.56,6.07,1.68,8.43c1.12,2.36,2.7,4.17,4.72,5.42c2.02,1.25,4.38,1.88,7.08,1.88c2.32,0,4.42-0.46,6.29-1.38
			c1.87-0.92,3.35-2.25,4.44-3.99c1.08-1.74,1.63-3.79,1.63-6.15v-1.46l2.53,0.9h-12.64v-4.21h15.17v20.22h-3.37l-1.4-10.67h2.19
			c-0.71,2.51-1.77,4.61-3.17,6.29c-1.4,1.68-3.09,2.93-5.06,3.74C3544.3,1081.24,3542.1,1081.64,3539.67,1081.64z"/>
		<path class="st1" d="M3589.38,1081.08v-39.32h4.94v39.32H3589.38z"/>
		<path class="st1" d="M3636.74,1081.08v-34.83h-13.2v-4.49h31.46v4.49h-13.2v34.83H3636.74z"/>
		<path class="st1" d="M3676.9,1081.08l13.43-39.32h6.29l13.43,39.32h-5.11l-11.4-34.55h-0.28l-11.4,34.55H3676.9z M3682.8,1070.97
			l1.12-4.21h19.21l1.12,4.21H3682.8z"/>
		<path class="st1" d="M3738.97,1081.08v-39.32h5.06v34.83h18.26v4.49H3738.97z"/>
	</g>
</g>
<g>
	<g>
		<path class="st0" d="M2838.18,1082.38c-1.41,6.14-2.62,11.45-3.23,15.25c-1.13,6.9-0.84,12.18-0.62,16.03
			c0.24,4.35,0.48,8.87-3.87,9.59l-0.24,0.02c-0.9,0.08-1.91,0.13-3.02,0.16c-11.95,0.39-35.8-1.27-64.36-6.03
			c-0.54-0.08-5.53-0.95-8.34-1.42c2.6-1.46,5.28-2.86,7.87-4.34c0.3,0.05,1.1,0.14,1.4,0.19c1.74,0.29,3.46,0.57,5.17,0.83
			c27.42,4.31,49.67,5.65,59.84,5.05c0.06-0.89-0.03-2.37-0.1-3.73c-0.21-3.88-0.54-9.76,0.69-17.26c0.66-3.98,1.87-9.36,3.29-15.59
			c3.85-16.92,9.12-40.11,6.82-53.2c-3.09-17.62-18.27-66.46-19.28-69.72c-0.35-0.95-0.88-3.47-2.98-13.6
			c-2.39-11.54-5.94-28.68-7.51-33.53c-8.15-6.87-17.92-13.96-27.36-20.84c-11.62-8.45-22.61-16.43-28.8-22.75
			c-3.29-3.38-6.24-5.04-9.02-5.07h-0.29c-4.11,0.13-7.93,3.9-11.64,7.54c-2.03,2-5.15,4.55-8.46,7.26
			c-3.73,3.05-7.95,6.51-11.12,9.58c-4.4,4.29-4.71,5.91-4.74,6.12c0.51,2.34,5.53,6.06,9.52,8.11c0.55,0.28,1.09,0.54,1.6,0.75
			l-1.11,2.6l0.1,2.83l-0.63,0.02l-0.58-0.25c-0.02-0.01-0.99-0.44-2.42-1.21c-1.63-0.88-3.85-2.18-5.94-3.79
			c-1.55-1.19-3.02-2.54-4.15-4.02c-0.97-1.26-1.68-2.6-1.95-4c-1.01-5.24,6.06-11.47,17.84-21.12c3.2-2.62,6.23-5.1,8.09-6.91
			c4.39-4.32,9.36-9.21,15.93-9.16c4.35,0.05,8.62,2.25,13.01,6.77c5.86,5.98,16.65,13.82,28.09,22.14
			c9.76,7.1,19.85,14.42,28.27,21.57l0.56,0.48l0.26,0.67c1.46,3.85,4.48,18.16,7.99,35.07c1.11,5.4,2.27,10.98,2.64,12.45h0.01
			l0.13,0.43c0.67,2.12,16.26,52.12,19.5,70.59C2847.54,1041.16,2842.12,1064.99,2838.18,1082.38z"/>
	</g>
	<g>
		<path class="st0" d="M2708.28,892.94L2708.28,892.94C2708.28,892.94,2708.28,892.94,2708.28,892.94z"/>
	</g>
</g>
<g>
	<g>
		<path class="st0" d="M2723.26,933.91c-0.47,0.01-0.95,0-1.44-0.03l-1.05-0.08l-0.74-0.75c-1.56-1.58-4.22-3.56-7.04-5.65
			c-4.93-3.65-10.02-7.43-12.31-11.24c-4.02-6.69,3.43-17.5,4.97-19.6l4.56,3.34l-2.28-1.67l2.28,1.67
			c-2.81,3.85-6.24,10.76-4.68,13.36c1.7,2.84,6.55,6.43,10.83,9.6c2.57,1.91,5.02,3.72,6.85,5.4c4.01-0.2,5.69-3.78,6.13-4.94
			l5.28,2C2733.11,929.29,2729.27,933.72,2723.26,933.91z"/>
	</g>
</g>
<g>
	<g>
		<path class="st0" d="M2743.12,904.36c-1.21,1.64-2.72,3.66-4.34,5.68c-2.7,3.37-4.77,5.68-6.43,7.23
			c-2.37,2.21-3.92,2.9-5.26,2.94l-0.11,0c-0.05,0-0.11,0-0.16,0c-4.77,0.06-8.85-2.79-10.94-7.64c-0.91-2.11-1.42-4.64-1.12-6.81
			c0.18-1.32,0.66-2.5,1.52-3.37l0.13-0.13c0.48-0.42,0.94-0.84,1.39-1.24c4.53-4.08,7.71-7.07,9.84-9.15
			c1.21,0.99,2.71,2.23,4.4,3.61c-2.37,2.31-6.08,5.81-11.63,10.79c-0.23,0.76-0.05,3.24,1.4,5.47c1.23,1.88,2.88,2.84,4.88,2.83
			c0.34-0.15,0.78-0.48,1.31-0.95c0.06-0.05,0.12-0.11,0.19-0.17c2.5-2.26,6.68-7.37,10.51-12.6
			C2740.14,902.02,2741.63,903.2,2743.12,904.36z"/>
	</g>
</g>
<g>
	<g>
		<path class="st0" d="M2756.47,914.39c-1.29,1.77-3.04,4.12-4.93,6.5c-4.34,5.43-7.07,8.1-9.09,9.31c-1.01,0.61-1.84,0.84-2.6,0.86
			c-0.1,0-0.18,0.01-0.28,0c-0.97,0.01-1.9-0.09-2.77-0.29l0-0.01c-1.56-0.35-2.95-1.02-4.16-1.89c-1.64-1.18-2.95-2.71-3.9-4.32
			c-0.36-0.59-0.66-1.2-0.92-1.81c-0.34-0.79-0.63-1.65-0.84-2.53c-0.55-2.39-0.46-4.92,1.02-6.6c0.06-0.07,0.11-0.12,0.17-0.18
			l0.01,0.02l4,3.96c0.15-0.14,0.2-0.27,0.2-0.27c-0.01,0.04-0.02,0.08-0.03,0.13c-0.12,0.72,0.17,2.94,1.69,5.08
			c0.99,1.4,2.74,3.05,5.4,3.04c1.98-0.9,7.57-7.59,12.44-14.31C2753.57,912.34,2755.12,913.46,2756.47,914.39z"/>
	</g>
</g>
<g>
	<g>
		<path class="st0" d="M2779.34,937.46c-2.64,0.08-5.09-0.44-7.28-1.57c-4.9-2.52-7.8-5.16-9.42-7.01c-1.82,1.4-2.56,3.09-2.59,3.18
			l-5.24-2.12c0.08-0.2,2.06-5.03,7.49-7.36l2.41-1.04l1.21,2.33c0,0,2.04,3.56,8.72,7c3.94,2.03,8.8,0.43,12.19-1.28l2.54,5.05
			C2785.83,936.42,2782.46,937.36,2779.34,937.46z"/>
	</g>
</g>
<g>
	<g>
		<path class="st0" d="M2755.74,943.95c-0.74,0.02-1.49-0.02-2.28-0.14c-6.04-0.92-11.62-4.05-14.56-8.16
			c-1.82-2.54-2.53-5.28-2.06-7.92l5.56,0.99c-0.25,1.4,0.46,2.75,1.09,3.64c2.05,2.87,6.3,5.17,10.82,5.86
			c6.32,0.96,10.72-7.75,10.77-7.84l5.07,2.49C2769.92,933.34,2764.77,943.66,2755.74,943.95z"/>
	</g>
</g>
<g>
	<g>
		<path class="st0" d="M2778.16,989.36l-1.12,2.5c-2.55,5.66-5.23,11.6-7.58,17.65c-0.39,1-0.77,2-1.14,3.01
			c-0.05,0.15-0.11,0.29-0.16,0.44c-0.27,0.75-0.55,1.5-0.8,2.26c-0.02,0.06-0.04,0.12-0.06,0.18c-1.43,4.15-2.64,8.33-3.49,12.49
			c-1.59-0.96-3.17-1.96-4.74-2.98c0.53-3.15,1.22-6,1.95-8.5c0.73-2.31,1.54-4.61,2.4-6.9c2.58-6.89,5.61-13.61,8.48-19.98
			l1.12-2.49c9.06-20.16,1.22-49.91,1.14-50.21l5.46-1.47C2779.96,936.67,2788.06,967.35,2778.16,989.36z"/>
	</g>
</g>
<g>
	<g>
		<path class="st0" d="M2767.38,1005.12c-0.24-0.19-24.56-18.56-47-13.1c-2.56,0.62-5.67,2.26-8.24,3.41l-4.38-4.9
			c2.88-1.29,8.36-3.51,11.26-4.21c25.1-6.1,50.73,13.49,51.8,14.32L2767.38,1005.12z"/>
	</g>
</g>
<g>
	<g>
		<path class="st0" d="M2700.47,973.8c-7.82-6.48-21.45-14.5-41.98-15.92c-19.38-1.34-38.85,5.88-53.39,19.79
			c-11.03,10.56-18.07,23.91-20.06,37.67c1.03,0.97,1.8,2.18,2.14,3.54c0.43,1.7,0.92,3.38,1.44,5.05c0.07,0.23,0.12,0.45,0.17,0.67
			l1.33-0.03c-0.38-15.36,6.5-30.97,18.88-42.82c13.4-12.82,31.29-19.47,49.1-18.24c18.9,1.3,31.39,8.58,38.55,14.46
			c7.78,6.39,11.14,12.56,11.17,12.62l5.52-1.78C2713.2,988.53,2709.03,980.89,2700.47,973.8z"/>
	</g>
</g>
<g>
	<g>
		<path class="st0" d="M2769.46,1009.52c-0.39,1-0.77,2-1.14,3.01c-0.05,0.15-0.11,0.29-0.16,0.44c-0.27,0.7-0.53,1.45-0.8,2.26
			c-0.02,0.06-0.04,0.12-0.06,0.18c-2.56,7.76-5.22,20.52-2.35,35.54h-5.76c-1.76-9.87-1.35-18.74-0.12-26.03
			c0.53-3.15,1.22-6,1.95-8.5c0.78-2.73,1.64-5.06,2.39-6.9H2769.46z"/>
	</g>
</g>
<g>
	<path class="st0" d="M2715.75,819.35c58.46,0,110.52,27.92,143.56,71.13h7.94c-5.79-7.97-12.23-15.55-19.33-22.65
		c-35.3-35.3-82.24-54.74-132.17-54.74c-49.93,0-96.87,19.44-132.17,54.74c-35.3,35.3-54.75,82.24-54.75,132.17
		c0,49.93,19.44,96.87,54.75,132.17c35.3,35.3,82.24,54.74,132.17,54.74c38.6,0,75.41-11.62,106.44-33.21
		c-3.09-0.19-6.53-0.46-10.31-0.82c-27.85,17.58-60.83,27.76-96.13,27.76c-99.61,0-180.65-81.04-180.65-180.65
		C2535.1,900.39,2616.14,819.35,2715.75,819.35z"/>
</g>
<g>
	<g>
		<path class="st0" d="M2621.03,906.32c-25.02,25.02-38.8,58.29-38.8,93.67c0,35.39,14.26,66.57,39.28,91.59
			c8.31,8.31,17.54,15.38,27.45,21.12v-3.35c-1.38-0.97-2.74-1.98-4.09-2.91c-2.71-1.87-5.12-3.83-7.22-6.19
			c-3.17-2.42-6.13-5.11-8.62-8.23c-0.78-0.97-1.39-2.03-1.83-3.13c-0.51-0.49-1.02-0.97-1.52-1.47
			c-23.91-23.91-37.56-53.61-37.56-87.42c0-33.81,13.17-65.6,37.08-89.5c21.54-21.55,49.49-34.37,79.54-36.69
			c2.33-2.04,4.94-4.11,7.71-6.26C2677.91,868.11,2645.52,881.83,2621.03,906.32z"/>
	</g>
</g>
<g>
	<g>
		<path class="st1" d="M2714.01,1127.63L2714.01,1127.63l-1.03,0.01C2713.32,1127.63,2713.66,1127.63,2714.01,1127.63z"/>
	</g>
</g>
<path class="st1" d="M2823.19,996.21v1c0,69.56-56.59,126.16-126.16,126.16c-42.77,0-77.61-34.65-77.95-77.38v-0.62
	c0-25.06,20.39-45.45,45.45-45.45c16.04,0,29.09,13.05,29.09,29.09c0,7.14-5.81,12.95-12.95,12.95h-1v5.79h1
	c10.33,0,18.74-8.41,18.74-18.74c0-19.23-15.65-34.88-34.88-34.88c-28.25,0-51.24,22.98-51.24,51.24c0,46.2,37.56,83.79,83.73,83.79
	c35.24,0,68.38-13.72,93.3-38.65c24.92-24.92,38.65-58.05,38.65-93.3v-1H2823.19z"/>
<g>
	<rect x="2696.56" y="1029.21" class="st1" width="0.95" height="97.05"/>
</g>
<g>
	<rect x="2615.8" y="1044.89" class="st1" width="81.23" height="0.95"/>
</g>
<g>
	<rect x="2663.97" y="997.39" class="st1" width="0.95" height="47.97"/>
</g>
<g>
	<rect x="2664.91" y="1028.81" class="st1" width="32.12" height="0.95"/>
</g>
<g>
	<rect x="2680.5" y="1029.28" class="st1" width="0.95" height="16.08"/>
</g>
<g>
	<g>
		<path class="st0" d="M3317.08,3237.25c-1.41,6.14-2.62,11.45-3.23,15.25c-1.13,6.9-0.84,12.18-0.62,16.03
			c0.24,4.35,0.48,8.87-3.87,9.59l-0.24,0.02c-0.9,0.08-1.91,0.13-3.02,0.16c-11.95,0.39-35.8-1.27-64.36-6.03
			c-0.54-0.08-5.53-0.95-8.34-1.42c2.6-1.46,5.28-2.86,7.87-4.34c0.3,0.05,1.1,0.14,1.4,0.19c1.74,0.29,3.46,0.57,5.17,0.83
			c27.42,4.31,49.67,5.65,59.84,5.05c0.06-0.89-0.03-2.37-0.1-3.73c-0.21-3.88-0.54-9.76,0.69-17.26c0.66-3.98,1.87-9.36,3.29-15.59
			c3.85-16.92,9.12-40.11,6.82-53.2c-3.09-17.62-18.27-66.46-19.28-69.72c-0.35-0.95-0.88-3.47-2.98-13.6
			c-2.39-11.54-5.94-28.68-7.51-33.53c-8.15-6.87-17.92-13.96-27.36-20.84c-11.62-8.45-22.61-16.43-28.8-22.75
			c-3.29-3.38-6.24-5.04-9.02-5.07h-0.29c-4.11,0.13-7.93,3.9-11.64,7.54c-2.03,2-5.15,4.55-8.46,7.26
			c-3.73,3.05-7.95,6.51-11.12,9.58c-4.4,4.29-4.71,5.91-4.74,6.12c0.51,2.34,5.53,6.06,9.52,8.11c0.55,0.28,1.09,0.54,1.6,0.75
			l-1.11,2.6l0.1,2.83l-0.63,0.02l-0.58-0.25c-0.02-0.01-0.99-0.44-2.42-1.21c-1.63-0.88-3.85-2.18-5.94-3.79
			c-1.55-1.19-3.02-2.54-4.15-4.02c-0.97-1.26-1.68-2.6-1.95-4c-1.01-5.24,6.06-11.47,17.84-21.12c3.2-2.62,6.23-5.1,8.09-6.91
			c4.39-4.32,9.36-9.21,15.93-9.16c4.35,0.05,8.62,2.25,13.01,6.77c5.86,5.98,16.65,13.82,28.09,22.14
			c9.76,7.1,19.85,14.42,28.27,21.57l0.56,0.48l0.26,0.67c1.46,3.85,4.48,18.16,7.99,35.07c1.11,5.4,2.27,10.98,2.64,12.45h0.01
			l0.13,0.43c0.67,2.12,16.26,52.12,19.5,70.59C3326.44,3196.03,3321.02,3219.86,3317.08,3237.25z"/>
	</g>
	<g>
		<path class="st0" d="M3187.18,3047.82L3187.18,3047.82C3187.18,3047.82,3187.18,3047.82,3187.18,3047.82z"/>
	</g>
</g>
<g>
	<g>
		<path class="st0" d="M3202.15,3088.79c-0.47,0.02-0.95,0-1.44-0.03l-1.05-0.08l-0.74-0.75c-1.56-1.58-4.22-3.56-7.04-5.65
			c-4.93-3.65-10.02-7.43-12.31-11.24c-4.02-6.69,3.43-17.5,4.97-19.6l4.56,3.34l-2.28-1.67l2.28,1.67
			c-2.81,3.85-6.24,10.76-4.68,13.36c1.7,2.84,6.55,6.43,10.83,9.6c2.57,1.91,5.02,3.72,6.85,5.4c4.01-0.2,5.69-3.78,6.13-4.94
			l5.28,2C3212,3084.17,3208.17,3088.6,3202.15,3088.79z"/>
	</g>
</g>
<g>
	<g>
		<path class="st0" d="M3222.02,3059.24c-1.21,1.64-2.72,3.66-4.34,5.68c-2.7,3.37-4.77,5.68-6.43,7.23
			c-2.37,2.21-3.92,2.9-5.26,2.94l-0.11,0c-0.05,0-0.11,0-0.16,0c-4.77,0.06-8.85-2.79-10.94-7.64c-0.91-2.11-1.42-4.64-1.12-6.81
			c0.18-1.32,0.66-2.5,1.52-3.37l0.13-0.13c0.48-0.42,0.94-0.84,1.39-1.24c4.53-4.08,7.71-7.07,9.84-9.15
			c1.21,0.99,2.71,2.23,4.4,3.61c-2.37,2.31-6.08,5.81-11.63,10.79c-0.23,0.76-0.05,3.24,1.4,5.47c1.23,1.88,2.88,2.84,4.88,2.83
			c0.34-0.15,0.78-0.48,1.31-0.95c0.06-0.05,0.12-0.11,0.19-0.17c2.5-2.26,6.68-7.37,10.51-12.6
			C3219.04,3056.9,3220.53,3058.08,3222.02,3059.24z"/>
	</g>
</g>
<g>
	<g>
		<path class="st0" d="M3235.37,3069.27c-1.29,1.77-3.04,4.12-4.93,6.5c-4.34,5.43-7.07,8.1-9.09,9.31
			c-1.01,0.61-1.84,0.84-2.6,0.86c-0.1,0-0.18,0.01-0.28,0c-0.97,0.01-1.9-0.09-2.77-0.29l0-0.01c-1.56-0.35-2.95-1.02-4.16-1.89
			c-1.64-1.18-2.95-2.71-3.9-4.32c-0.36-0.59-0.66-1.2-0.92-1.81c-0.34-0.79-0.63-1.65-0.84-2.53c-0.55-2.39-0.46-4.92,1.02-6.6
			c0.06-0.07,0.11-0.12,0.17-0.18l0.01,0.02l4,3.96c0.15-0.14,0.2-0.27,0.2-0.27c-0.01,0.04-0.02,0.08-0.03,0.14
			c-0.12,0.72,0.17,2.94,1.69,5.08c0.99,1.4,2.74,3.05,5.4,3.04c1.98-0.9,7.57-7.59,12.44-14.31
			C3232.46,3067.22,3234.02,3068.34,3235.37,3069.27z"/>
	</g>
</g>
<g>
	<g>
		<path class="st0" d="M3258.24,3092.34c-2.64,0.08-5.09-0.44-7.28-1.57c-4.9-2.52-7.8-5.16-9.42-7.01
			c-1.82,1.4-2.56,3.09-2.59,3.18l-5.24-2.12c0.08-0.2,2.06-5.03,7.49-7.36l2.41-1.04l1.21,2.33c0,0,2.04,3.56,8.72,7
			c3.94,2.03,8.8,0.43,12.19-1.28l2.54,5.05C3264.73,3091.3,3261.35,3092.24,3258.24,3092.34z"/>
	</g>
</g>
<g>
	<g>
		<path class="st0" d="M3234.63,3098.83c-0.74,0.02-1.49-0.02-2.28-0.14c-6.04-0.92-11.62-4.05-14.56-8.16
			c-1.82-2.54-2.53-5.28-2.06-7.92l5.56,0.99c-0.25,1.4,0.46,2.75,1.09,3.64c2.05,2.87,6.3,5.17,10.82,5.86
			c6.32,0.96,10.72-7.75,10.77-7.84l5.07,2.49C3248.81,3088.22,3243.66,3098.54,3234.63,3098.83z"/>
	</g>
</g>
<g>
	<g>
		<path class="st0" d="M3257.06,3144.24l-1.12,2.5c-2.55,5.66-5.23,11.6-7.58,17.65c-0.39,1-0.77,2-1.14,3.01
			c-0.05,0.15-0.11,0.29-0.16,0.44c-0.27,0.75-0.55,1.5-0.8,2.26c-0.02,0.06-0.04,0.12-0.06,0.18c-1.43,4.15-2.64,8.33-3.49,12.49
			c-1.59-0.96-3.17-1.96-4.74-2.98c0.53-3.15,1.22-6,1.95-8.5c0.73-2.31,1.54-4.61,2.4-6.9c2.58-6.89,5.61-13.61,8.48-19.98
			l1.12-2.49c9.06-20.16,1.22-49.91,1.14-50.21l5.46-1.47C3258.86,3091.55,3266.96,3122.23,3257.06,3144.24z"/>
	</g>
</g>
<g>
	<g>
		<path class="st0" d="M3246.28,3160c-0.24-0.19-24.56-18.56-47-13.1c-2.56,0.62-5.67,2.26-8.24,3.41l-4.38-4.9
			c2.88-1.29,8.36-3.51,11.26-4.21c25.1-6.1,50.73,13.49,51.8,14.32L3246.28,3160z"/>
	</g>
</g>
<g>
	<g>
		<path class="st0" d="M3179.37,3128.68c-7.82-6.48-21.45-14.5-41.98-15.92c-19.38-1.34-38.85,5.88-53.39,19.79
			c-11.03,10.56-18.07,23.91-20.06,37.67c1.03,0.97,1.8,2.18,2.14,3.54c0.43,1.7,0.92,3.38,1.44,5.05c0.07,0.23,0.12,0.45,0.17,0.67
			l1.33-0.03c-0.38-15.36,6.5-30.97,18.88-42.82c13.4-12.82,31.29-19.47,49.1-18.24c18.89,1.3,31.39,8.58,38.55,14.46
			c7.78,6.39,11.14,12.56,11.17,12.62l5.52-1.78C3192.09,3143.41,3187.92,3135.77,3179.37,3128.68z"/>
	</g>
</g>
<g>
	<g>
		<path class="st0" d="M3248.35,3164.4c-0.39,1-0.77,2-1.14,3.01c-0.05,0.15-0.11,0.29-0.16,0.44c-0.27,0.7-0.53,1.45-0.8,2.26
			c-0.02,0.06-0.04,0.12-0.06,0.18c-2.56,7.76-5.22,20.52-2.35,35.54h-5.76c-1.76-9.87-1.35-18.74-0.12-26.03
			c0.53-3.15,1.22-6,1.95-8.5c0.78-2.73,1.64-5.06,2.39-6.9H3248.35z"/>
	</g>
</g>
<g>
	<path class="st0" d="M3194.65,2974.23c58.46,0,110.52,27.92,143.56,71.13h7.94c-5.79-7.97-12.23-15.55-19.33-22.65
		c-35.3-35.3-82.24-54.74-132.17-54.74c-49.93,0-96.87,19.44-132.17,54.74c-35.3,35.3-54.75,82.24-54.75,132.17
		c0,49.93,19.44,96.87,54.75,132.17c35.3,35.3,82.24,54.74,132.17,54.74c38.6,0,75.41-11.62,106.44-33.21
		c-3.09-0.19-6.53-0.46-10.31-0.82c-27.85,17.58-60.83,27.76-96.13,27.76c-99.61,0-180.65-81.04-180.65-180.65
		C3014,3055.27,3095.04,2974.23,3194.65,2974.23z"/>
</g>
<g>
	<g>
		<path class="st0" d="M3099.93,3061.2c-25.02,25.02-38.8,58.29-38.8,93.67c0,35.39,14.26,66.57,39.28,91.59
			c8.31,8.31,17.54,15.38,27.45,21.12v-3.35c-1.38-0.97-2.74-1.98-4.09-2.91c-2.71-1.87-5.12-3.83-7.22-6.19
			c-3.17-2.42-6.13-5.11-8.62-8.23c-0.78-0.97-1.39-2.03-1.83-3.13c-0.51-0.49-1.02-0.97-1.52-1.47
			c-23.91-23.91-37.56-53.6-37.56-87.42c0-33.81,13.17-65.6,37.08-89.5c21.54-21.55,49.49-34.37,79.54-36.69
			c2.33-2.04,4.94-4.11,7.71-6.26C3156.81,3022.99,3124.42,3036.71,3099.93,3061.2z"/>
	</g>
</g>
<g>
	<g>
		<path class="st0" d="M3192.9,3282.51L3192.9,3282.51l-1.03,0.01C3192.22,3282.51,3192.56,3282.51,3192.9,3282.51z"/>
	</g>
</g>
<path class="st1" d="M3302.08,3151.09v1c0,69.56-56.59,126.16-126.16,126.16c-42.77,0-77.61-34.65-77.95-77.38v-0.62
	c0-25.06,20.39-45.45,45.45-45.45c16.04,0,29.09,13.05,29.09,29.09c0,7.14-5.81,12.95-12.95,12.95h-1v5.79h1
	c10.33,0,18.74-8.41,18.74-18.74c0-19.23-15.65-34.88-34.88-34.88c-28.25,0-51.24,22.98-51.24,51.24c0,46.2,37.56,83.79,83.73,83.79
	c35.24,0,68.38-13.72,93.3-38.65c24.92-24.92,38.65-58.05,38.65-93.3v-1H3302.08z"/>
<g>
	<rect x="3175.45" y="3184.09" class="st1" width="0.95" height="97.05"/>
</g>
<g>
	<rect x="3094.69" y="3199.77" class="st1" width="81.23" height="0.95"/>
</g>
<g>
	<rect x="3142.87" y="3152.27" class="st1" width="0.95" height="47.97"/>
</g>
<g>
	<rect x="3143.81" y="3183.69" class="st1" width="32.12" height="0.95"/>
</g>
<g>
	<rect x="3159.4" y="3184.16" class="st1" width="0.95" height="16.08"/>
</g>
<g>
	<g>
		<g>
			<path class="st0" d="M1166.72,1103.88c-1.78,7.74-3.3,14.44-4.07,19.23c-1.43,8.7-1.06,15.36-0.78,20.21
				c0.3,5.49,0.61,11.19-4.88,12.09l-0.3,0.03c-1.14,0.1-2.41,0.16-3.81,0.2c-15.07,0.49-45.15-1.6-81.16-7.6
				c-0.68-0.1-6.98-1.2-10.52-1.8c3.28-1.84,6.66-3.6,9.92-5.47c0.38,0.06,1.39,0.18,1.77,0.24c2.19,0.37,4.36,0.72,6.52,1.05
				c34.58,5.44,62.64,7.12,75.46,6.37c0.08-1.12-0.04-2.99-0.13-4.7c-0.26-4.89-0.68-12.31,0.87-21.77
				c0.83-5.02,2.36-11.8,4.15-19.66c4.85-21.34,11.5-50.58,8.6-67.09c-3.9-22.22-23.04-83.81-24.31-87.92
				c-0.44-1.2-1.11-4.38-3.76-17.15c-3.01-14.55-7.49-36.17-9.47-42.28c-10.28-8.66-22.6-17.6-34.5-26.28
				c-14.65-10.66-28.51-20.72-36.32-28.69c-4.15-4.26-7.87-6.36-11.37-6.39h-0.37c-5.18,0.16-10,4.92-14.68,9.51
				c-2.56,2.52-6.49,5.74-10.67,9.16c-4.7,3.85-10.03,8.21-14.02,12.08c-5.55,5.41-5.94,7.45-5.98,7.72
				c0.64,2.95,6.97,7.64,12.01,10.23c0.69,0.35,1.37,0.68,2.02,0.95l-1.4,3.28l0.13,3.57l-0.79,0.03l-0.73-0.32
				c-0.03-0.01-1.25-0.55-3.05-1.53c-2.06-1.11-4.86-2.75-7.49-4.78c-1.95-1.5-3.81-3.2-5.23-5.07c-1.22-1.59-2.12-3.28-2.46-5.04
				c-1.27-6.61,7.64-14.46,22.5-26.63c4.04-3.3,7.86-6.43,10.2-8.71c5.54-5.45,11.8-11.61,20.09-11.55
				c5.49,0.06,10.87,2.84,16.41,8.54c7.39,7.54,21,17.43,35.42,27.92c12.31,8.95,25.03,18.18,35.65,27.2l0.71,0.61l0.33,0.84
				c1.84,4.86,5.65,22.9,10.08,44.22c1.4,6.81,2.86,13.85,3.33,15.7h0.01l0.16,0.54c0.84,2.67,20.5,65.73,24.59,89.02
				C1178.52,1051.9,1171.69,1081.95,1166.72,1103.88z"/>
		</g>
		<g>
			<path class="st0" d="M1002.91,865L1002.91,865C1002.91,865,1002.91,865,1002.91,865z"/>
		</g>
	</g>
	<g>
		<g>
			<path class="st0" d="M1021.79,916.66c-0.59,0.02-1.2,0.01-1.82-0.04l-1.33-0.1l-0.93-0.95c-1.96-2-5.32-4.49-8.87-7.12
				c-6.21-4.61-12.64-9.37-15.52-14.17c-5.07-8.44,4.33-22.07,6.26-24.71l5.75,4.21l-2.88-2.1l2.88,2.1
				c-3.54,4.86-7.87,13.58-5.91,16.84c2.15,3.58,8.26,8.11,13.65,12.11c3.24,2.41,6.34,4.7,8.63,6.81c5.06-0.25,7.18-4.77,7.73-6.23
				l6.66,2.52C1034.22,910.83,1029.38,916.41,1021.79,916.66z"/>
		</g>
	</g>
	<g>
		<g>
			<path class="st0" d="M1046.85,879.4c-1.52,2.07-3.44,4.61-5.48,7.17c-3.4,4.25-6.01,7.17-8.11,9.12
				c-2.99,2.79-4.94,3.65-6.63,3.71l-0.14,0c-0.06,0-0.14,0-0.2,0c-6.02,0.07-11.16-3.52-13.79-9.63c-1.15-2.66-1.79-5.86-1.42-8.59
				c0.23-1.66,0.83-3.15,1.92-4.26l0.16-0.16c0.6-0.53,1.18-1.06,1.75-1.57c5.71-5.14,9.72-8.92,12.41-11.53
				c1.53,1.25,3.42,2.81,5.55,4.55c-2.98,2.91-7.66,7.33-14.67,13.61c-0.29,0.96-0.06,4.09,1.76,6.89c1.55,2.38,3.63,3.58,6.15,3.56
				c0.43-0.19,0.98-0.6,1.66-1.19c0.08-0.06,0.16-0.13,0.23-0.21c3.15-2.85,8.43-9.29,13.25-15.89
				C1043.09,876.44,1044.97,877.93,1046.85,879.4z"/>
		</g>
	</g>
	<g>
		<g>
			<path class="st0" d="M1063.68,892.04c-1.62,2.23-3.84,5.2-6.22,8.19c-5.47,6.84-8.92,10.22-11.46,11.74
				c-1.28,0.76-2.32,1.05-3.28,1.09c-0.12,0-0.23,0.01-0.35,0c-1.23,0.02-2.4-0.12-3.49-0.36l0-0.01c-1.97-0.44-3.72-1.29-5.24-2.38
				c-2.07-1.48-3.72-3.42-4.92-5.44c-0.45-0.75-0.84-1.52-1.17-2.28c-0.43-1-0.8-2.08-1.06-3.19c-0.7-3.01-0.58-6.21,1.29-8.33
				c0.07-0.08,0.14-0.16,0.22-0.23l0.02,0.02l5.04,4.99c0.19-0.18,0.25-0.34,0.25-0.34c-0.01,0.05-0.03,0.1-0.04,0.17
				c-0.16,0.9,0.21,3.71,2.13,6.41c1.25,1.77,3.45,3.85,6.82,3.84c2.49-1.14,9.54-9.57,15.69-18.04
				C1060.02,889.46,1061.97,890.87,1063.68,892.04z"/>
		</g>
	</g>
	<g>
		<g>
			<path class="st0" d="M1092.52,921.13c-3.33,0.11-6.41-0.55-9.19-1.98c-6.18-3.18-9.84-6.51-11.88-8.85
				c-2.3,1.77-3.22,3.9-3.27,4.01l-6.6-2.68c0.1-0.26,2.6-6.35,9.45-9.28l3.04-1.31l1.53,2.94c0,0,2.57,4.49,11,8.82
				c4.97,2.56,11.1,0.54,15.37-1.61l3.2,6.36C1100.71,919.82,1096.45,921.01,1092.52,921.13z"/>
		</g>
	</g>
	<g>
		<g>
			<path class="st0" d="M1062.75,929.32c-0.93,0.03-1.88-0.02-2.88-0.18c-7.62-1.17-14.66-5.11-18.37-10.29
				c-2.29-3.21-3.19-6.66-2.6-9.99l7.01,1.25c-0.32,1.76,0.58,3.47,1.38,4.59c2.59,3.62,7.95,6.52,13.65,7.39
				c7.97,1.21,13.52-9.78,13.58-9.89l6.4,3.14C1080.64,915.94,1074.14,928.95,1062.75,929.32z"/>
		</g>
	</g>
	<g>
		<g>
			<path class="st0" d="M1091.03,986.59l-1.42,3.15c-3.22,7.13-6.6,14.63-9.56,22.26c-0.49,1.26-0.97,2.52-1.44,3.8
				c-0.07,0.18-0.13,0.37-0.2,0.55c-0.34,0.95-0.69,1.89-1.01,2.85c-0.03,0.08-0.05,0.15-0.08,0.23c-1.8,5.24-3.33,10.5-4.4,15.75
				c-2-1.22-4-2.47-5.98-3.76c0.67-3.97,1.53-7.56,2.46-10.72c0.92-2.92,1.94-5.82,3.03-8.7c3.25-8.68,7.07-17.16,10.7-25.2
				l1.42-3.13c11.42-25.42,1.54-62.94,1.44-63.32l6.88-1.85C1093.3,920.14,1103.51,958.83,1091.03,986.59z"/>
		</g>
	</g>
	<g>
		<g>
			<path class="st0" d="M1077.43,1006.45c-0.3-0.23-30.97-23.4-59.27-16.52c-3.23,0.79-7.15,2.85-10.39,4.3l-5.52-6.18
				c3.63-1.62,10.54-4.42,14.2-5.31c31.66-7.69,63.97,17.02,65.33,18.06L1077.43,1006.45z"/>
		</g>
	</g>
	<g>
		<g>
			<path class="st0" d="M993.07,966.97c-9.86-8.17-27.04-18.29-52.94-20.07c-24.44-1.69-48.99,7.41-67.33,24.96
				c-13.91,13.31-22.78,30.15-25.29,47.5c1.29,1.22,2.27,2.75,2.7,4.46c0.54,2.14,1.16,4.26,1.81,6.37
				c0.09,0.28,0.15,0.57,0.21,0.85l1.68-0.04c-0.48-19.37,8.19-39.05,23.81-53.99c16.89-16.17,39.46-24.55,61.91-23
				c23.83,1.65,39.59,10.82,48.61,18.23c9.81,8.05,14.05,15.84,14.09,15.92l6.96-2.25C1009.11,985.54,1003.85,975.9,993.07,966.97z"
				/>
		</g>
	</g>
	<g>
		<g>
			<path class="st0" d="M1080.05,1012c-0.49,1.26-0.97,2.52-1.44,3.8c-0.07,0.18-0.13,0.37-0.2,0.55c-0.34,0.88-0.67,1.83-1.01,2.85
				c-0.03,0.08-0.05,0.15-0.08,0.23c-3.23,9.78-6.58,25.88-2.96,44.82h-7.27c-2.22-12.45-1.7-23.64-0.15-32.82
				c0.67-3.97,1.53-7.56,2.46-10.72c0.99-3.45,2.06-6.38,3.01-8.7H1080.05z"/>
		</g>
	</g>
	<g>
		<path class="st0" d="M1012.33,772.2c73.73,0,139.37,35.21,181.04,89.7h10.01c-7.3-10.05-15.42-19.61-24.38-28.56
			c-44.51-44.52-103.71-69.03-166.67-69.03s-122.15,24.51-166.67,69.03c-44.52,44.52-69.04,103.71-69.04,166.67
			c0,62.96,24.52,122.15,69.04,166.68c44.51,44.52,103.71,69.03,166.67,69.03c48.67,0,95.1-14.65,134.22-41.88
			c-3.89-0.24-8.24-0.58-13-1.03c-35.12,22.17-76.71,35.01-121.23,35.01c-125.61,0-227.81-102.19-227.81-227.81
			C784.53,874.39,886.72,772.2,1012.33,772.2z"/>
	</g>
	<g>
		<g>
			<path class="st0" d="M892.88,881.87c-31.56,31.56-48.93,73.51-48.93,118.13c0,44.62,17.98,83.95,49.54,115.5
				c10.48,10.48,22.12,19.39,34.61,26.63v-4.22c-1.74-1.23-3.45-2.5-5.15-3.68c-3.42-2.36-6.45-4.83-9.11-7.81
				c-4-3.06-7.73-6.44-10.87-10.37c-0.98-1.22-1.76-2.56-2.3-3.95c-0.64-0.62-1.28-1.23-1.91-1.86
				c-30.15-30.15-47.36-67.6-47.36-110.24c0-42.64,16.61-82.72,46.75-112.87c27.17-27.17,62.41-43.34,100.3-46.27
				c2.94-2.57,6.23-5.19,9.72-7.9C964.61,833.68,923.77,850.98,892.88,881.87z"/>
		</g>
	</g>
	<g>
		<g>
			<path class="st1" d="M1010.13,1160.94L1010.13,1160.94l-1.3,0.01C1009.27,1160.95,1009.69,1160.95,1010.13,1160.94z"/>
		</g>
	</g>
	<path class="st1" d="M1147.81,995.22v1.26c0,87.72-71.37,159.09-159.09,159.09c-53.94,0-97.87-43.7-98.29-97.57v-0.79
		c0-31.6,25.71-57.31,57.31-57.31c20.23,0,36.69,16.46,36.69,36.69c0,9.01-7.33,16.34-16.34,16.34h-1.26v7.3h1.26
		c13.03,0,23.63-10.6,23.63-23.63c0-24.25-19.73-43.99-43.99-43.99c-35.63,0-64.61,28.98-64.61,64.61
		c0,58.26,47.37,105.66,105.59,105.66c44.44,0,86.23-17.31,117.65-48.73c31.43-31.43,48.73-73.21,48.73-117.65v-1.26H1147.81z"/>
	<g>
		<rect x="988.12" y="1036.83" class="st1" width="1.19" height="122.38"/>
	</g>
	<g>
		<rect x="886.28" y="1056.61" class="st1" width="102.44" height="1.19"/>
	</g>
	<g>
		<rect x="947.03" y="996.71" class="st1" width="1.19" height="60.5"/>
	</g>
	<g>
		<rect x="948.22" y="1036.33" class="st1" width="40.5" height="1.19"/>
	</g>
	<g>
		<rect x="967.88" y="1036.92" class="st1" width="1.19" height="20.28"/>
	</g>
</g>
<g>
	<path class="st0" d="M721.28,827.21c-2.01,3.32-4.56,5.79-7.64,7.4c-3.08,1.62-6.44,2.27-10.07,1.97
		c-3.63-0.3-7.27-1.56-10.93-3.78c-3.63-2.2-6.42-4.84-8.39-7.92c-1.97-3.08-2.95-6.36-2.96-9.82c-0.01-3.46,0.98-6.84,2.97-10.12
		c1.45-2.39,3.2-4.32,5.25-5.77c2.05-1.45,4.32-2.39,6.82-2.81c2.5-0.42,5.16-0.3,7.98,0.38l-1.8,4.59
		c-2.96-0.67-5.66-0.48-8.1,0.57c-2.44,1.05-4.45,2.89-6.05,5.53c-1.49,2.46-2.21,4.95-2.17,7.46c0.05,2.51,0.86,4.91,2.45,7.2
		c1.58,2.29,3.84,4.33,6.79,6.11c2.94,1.78,5.8,2.84,8.56,3.18c2.76,0.34,5.27-0.06,7.53-1.19c2.25-1.14,4.14-2.95,5.65-5.45
		c1.64-2.7,2.36-5.39,2.17-8.05c-0.19-2.66-1.26-5.15-3.23-7.46l3.24-3.72c1.9,2.18,3.24,4.49,4.02,6.92s0.99,4.9,0.64,7.4
		C723.66,822.32,722.76,824.79,721.28,827.21z"/>
	<path class="st0" d="M758.88,777.18c-2.56,2.81-5.5,4.69-8.81,5.65c-3.31,0.96-6.72,0.92-10.22-0.11c-3.5-1.03-6.82-2.97-9.95-5.83
		c-3.13-2.86-5.37-5.98-6.71-9.38c-1.34-3.39-1.69-6.78-1.04-10.17c0.65-3.38,2.26-6.48,4.82-9.29c2.59-2.84,5.53-4.73,8.83-5.67
		s6.71-0.91,10.22,0.11s6.84,2.95,9.97,5.81c3.13,2.86,5.36,5.99,6.69,9.4c1.33,3.41,1.67,6.8,1.04,10.17
		C763.08,771.24,761.46,774.34,758.88,777.18z M755.33,773.94c1.94-2.13,3.12-4.42,3.53-6.89c0.41-2.47,0.06-4.96-1.04-7.49
		s-2.93-4.95-5.47-7.27c-2.54-2.32-5.12-3.92-7.74-4.79c-2.62-0.87-5.13-0.99-7.55-0.36c-2.42,0.63-4.6,2.01-6.54,4.14
		c-1.92,2.1-3.08,4.38-3.49,6.85c-0.41,2.47-0.06,4.97,1.06,7.51c1.12,2.54,2.94,4.96,5.45,7.25s5.08,3.88,7.71,4.77
		c2.63,0.89,5.16,1.01,7.58,0.38C751.25,777.41,753.42,776.04,755.33,773.94z"/>
	<path class="st0" d="M793.37,743.33l-25.13-33.65l12.02-8.98c2.02-1.51,4.15-2.43,6.38-2.78c2.24-0.35,4.37-0.11,6.41,0.71
		c2.04,0.83,3.75,2.17,5.14,4.02c1.39,1.86,2.18,3.89,2.38,6.09c0.2,2.2-0.14,4.29-1.01,6.26c-0.87,1.97-2.16,3.6-3.86,4.86
		l-0.48,0.36l-0.24,0.18l-9.13,6.82l-2.87-3.85l8.89-6.64c1.35-1.01,2.33-2.11,2.95-3.32c0.62-1.21,0.85-2.46,0.69-3.74
		c-0.16-1.28-0.7-2.55-1.64-3.8s-1.99-2.13-3.17-2.65c-1.18-0.51-2.44-0.65-3.78-0.4c-1.34,0.25-2.68,0.88-4.02,1.88l-7.45,5.56
		l10.23,13.7l0.36,0.48l11.67,15.62L793.37,743.33z M813.51,728.29l-21.08-8.67l4.05-3.7l21.88,8.74L813.51,728.29z"/>
	<path class="st0" d="M842.24,710.37l-18.81-37.55l12.88-6.45c2.36-1.18,4.73-1.74,7.11-1.68c2.38,0.06,4.54,0.7,6.47,1.93
		c1.93,1.22,3.45,2.93,4.54,5.11c1.09,2.18,1.55,4.41,1.37,6.69c-0.18,2.28-0.95,4.39-2.33,6.33c-1.38,1.94-3.24,3.5-5.6,4.69
		l-9.66,4.84l-2.15-4.29l9.39-4.7c1.64-0.82,2.91-1.81,3.78-2.97c0.88-1.15,1.34-2.43,1.41-3.83c0.06-1.39-0.28-2.84-1.04-4.35
		c-1.13-2.25-2.7-3.68-4.7-4.29c-2-0.61-4.24-0.29-6.71,0.94l-7.78,3.9l8.2,16.36l0.27,0.54l8.2,16.36L842.24,710.37z"/>
	<path class="st0" d="M910.97,683.05c-3.66,1.03-7.14,1.08-10.46,0.15c-3.32-0.93-6.2-2.76-8.63-5.48
		c-2.43-2.72-4.22-6.12-5.38-10.2c-1.15-4.08-1.41-7.92-0.76-11.51c0.65-3.59,2.14-6.65,4.48-9.18c2.34-2.53,5.34-4.32,8.99-5.35
		c3.7-1.04,7.19-1.1,10.49-0.16c3.3,0.94,6.17,2.76,8.63,5.48c2.45,2.72,4.25,6.11,5.41,10.19c1.15,4.08,1.4,7.92,0.73,11.52
		c-0.67,3.6-2.16,6.66-4.48,9.19S914.67,682.01,910.97,683.05z M909.67,678.43c2.77-0.78,4.98-2.11,6.63-4
		c1.65-1.88,2.67-4.18,3.06-6.91c0.39-2.73,0.12-5.75-0.82-9.06c-0.94-3.31-2.29-6.03-4.05-8.15c-1.76-2.12-3.84-3.55-6.23-4.29
		c-2.39-0.74-4.97-0.71-7.74,0.07c-2.73,0.77-4.92,2.1-6.58,3.98c-1.65,1.88-2.67,4.19-3.06,6.94c-0.39,2.75-0.12,5.76,0.81,9.03
		s2.27,5.98,4.04,8.12c1.77,2.14,3.85,3.58,6.24,4.32S906.93,679.21,909.67,678.43z"/>
	<path class="st0" d="M1006.31,670.83c-4.32-0.07-7.92-1.2-10.8-3.37c-2.88-2.17-4.81-5.24-5.78-9.22l4.81-0.76
		c0.87,3.02,2.32,5.18,4.36,6.5c2.04,1.32,4.54,2,7.5,2.05c1.92,0.03,3.58-0.21,4.99-0.72c1.41-0.52,2.49-1.32,3.25-2.4
		c0.76-1.09,1.15-2.49,1.18-4.21c0.03-1.64-0.41-2.95-1.31-3.92c-0.9-0.98-2.04-1.72-3.41-2.25c-1.37-0.52-3.25-1.11-5.64-1.75
		c-2.87-0.73-5.2-1.48-6.98-2.25c-1.79-0.77-3.3-1.94-4.53-3.5c-1.23-1.56-1.83-3.68-1.78-6.36c0.04-2.32,0.68-4.32,1.93-6
		c1.25-1.68,2.95-2.95,5.11-3.81c2.15-0.86,4.57-1.27,7.25-1.23c3.96,0.07,7.22,1.1,9.79,3.11c2.57,2,4.24,4.75,5.02,8.25
		l-4.81,0.76c-0.6-2.49-1.78-4.32-3.54-5.49c-1.76-1.17-3.94-1.78-6.54-1.82c-1.68-0.03-3.17,0.18-4.48,0.61
		c-1.31,0.44-2.35,1.14-3.13,2.11s-1.18,2.17-1.2,3.61c-0.03,1.6,0.41,2.89,1.31,3.86c0.9,0.98,2.03,1.71,3.38,2.22
		c1.35,0.5,3.2,1.07,5.55,1.71c2.91,0.77,5.25,1.53,7.04,2.28c1.79,0.75,3.31,1.93,4.56,3.53c1.25,1.6,1.86,3.74,1.81,6.42
		c-0.04,2.6-0.68,4.81-1.91,6.63c-1.23,1.82-2.96,3.19-5.17,4.11C1011.91,670.44,1009.31,670.88,1006.31,670.83z"/>
	<path class="st0" d="M1066.5,677.54c-3.8-0.77-6.99-2.33-9.55-4.69c-2.56-2.36-4.31-5.29-5.25-8.81
		c-0.94-3.52-0.99-7.37-0.13-11.57c0.84-4.16,2.38-7.68,4.62-10.57s4.99-4.93,8.25-6.1c3.26-1.18,6.77-1.38,10.53-0.62
		c2.74,0.56,5.14,1.55,7.2,2.99c2.05,1.44,3.71,3.26,4.95,5.47c1.25,2.21,2.03,4.76,2.34,7.64l-4.93-0.14
		c-0.37-3.01-1.46-5.49-3.27-7.43c-1.81-1.94-4.23-3.21-7.24-3.83c-2.82-0.57-5.41-0.41-7.75,0.48c-2.34,0.89-4.33,2.47-5.95,4.73
		c-1.62,2.26-2.77,5.08-3.46,8.45c-0.68,3.37-0.72,6.42-0.11,9.13c0.61,2.72,1.83,4.94,3.67,6.68c1.83,1.74,4.18,2.9,7.04,3.48
		c3.1,0.63,5.87,0.4,8.31-0.67c2.44-1.08,4.42-2.93,5.93-5.56l4.6,1.79c-1.41,2.53-3.13,4.57-5.16,6.12
		c-2.03,1.55-4.28,2.58-6.75,3.1C1071.91,678.13,1069.29,678.1,1066.5,677.54z"/>
	<path class="st0" d="M1111.8,689.76l14.68-39.35l4.95,1.85l-14.68,39.35L1111.8,689.76z"/>
	<path class="st0" d="M1146.18,704.31l20.21-36.82l22.62,12.41l-2.31,4.21l-17.88-9.82l-15.59,28.4l18.15,9.96l-2.31,4.21
		L1146.18,704.31z M1158.17,689.33l2.31-4.21l17.88,9.82l-2.31,4.21L1158.17,689.33z"/>
	<path class="st0" d="M1193.92,733.36l26.53-32.56l4.88,3.98l-5.81,39.15l0.23,0.19l21.49-26.38l4.09,3.33l-26.53,32.56l-4.88-3.98
		l5.81-39.15l-0.23-0.19l-21.49,26.38L1193.92,733.36z"/>
	<path class="st0" d="M1238.83,773.3l3.88-3.31l39.3-2.96l0.23-0.19l-14.54-17.01l3.65-3.12l18.52,21.67l-3.88,3.31l-39.3,2.96
		l-0.23,0.2l15.71,18.38l-3.65,3.12L1238.83,773.3z"/>
	<path class="st0" d="M1272.81,815.96l43.46-9l3.42,5.79l-28.88,33.7l-2.78-4.7l25.59-29.24l-0.15-0.26l-37.97,8.27L1272.81,815.96z
		 M1285.32,815.9l4.49-1.25l10.43,17.67l-3.26,3.32L1285.32,815.9z"/>
</g>
<g>
	<path class="st0" d="M692.41,1202.11c-2.39-3.6-3.52-7.2-3.37-10.8c0.15-3.61,1.58-6.94,4.3-10l3.36,3.53
		c-1.99,2.43-2.95,4.85-2.87,7.28c0.07,2.42,0.93,4.87,2.57,7.33c1.06,1.6,2.21,2.83,3.43,3.7c1.22,0.87,2.5,1.3,3.83,1.31
		c1.33,0.01,2.7-0.47,4.14-1.42c1.37-0.91,2.19-2.01,2.48-3.31c0.29-1.3,0.26-2.66-0.09-4.08c-0.35-1.43-0.94-3.3-1.77-5.63
		c-1.03-2.77-1.73-5.12-2.11-7.02c-0.38-1.91-0.28-3.81,0.3-5.72c0.58-1.9,1.99-3.6,4.22-5.08c1.93-1.29,3.94-1.89,6.03-1.82
		c2.09,0.07,4.1,0.75,6.04,2.04s3.64,3.04,5.13,5.27c2.19,3.3,3.19,6.57,3,9.82c-0.19,3.25-1.5,6.19-3.94,8.82l-3.36-3.53
		c1.71-1.91,2.55-3.92,2.51-6.03c-0.04-2.11-0.78-4.25-2.22-6.42c-0.93-1.4-1.95-2.51-3.05-3.34c-1.1-0.83-2.27-1.29-3.51-1.38
		c-1.24-0.09-2.45,0.26-3.65,1.06c-1.33,0.89-2.14,1.98-2.43,3.28c-0.29,1.3-0.26,2.65,0.1,4.04s0.93,3.25,1.74,5.54
		c1.02,2.83,1.73,5.19,2.12,7.09s0.29,3.82-0.31,5.76c-0.61,1.94-2.03,3.65-4.26,5.14c-2.17,1.44-4.35,2.17-6.54,2.19
		c-2.2,0.02-4.3-0.62-6.32-1.92S694.07,1204.6,692.41,1202.11z"/>
	<path class="st0" d="M720.83,1239.07l40.28-18.62l4.64,4.86l-20.48,39.37l-3.77-3.95l18.28-34.29l-0.21-0.22l-35.1,16.67
		L720.83,1239.07z M732.99,1236.17l4.08-2.24l14.17,14.84l-2.43,3.98L732.99,1236.17z"/>
	<path class="st0" d="M782.63,1296.08c-2.55-1.86-4.37-4.04-5.45-6.53c-1.08-2.49-1.38-5.15-0.91-7.97c0.47-2.82,1.74-5.66,3.82-8.5
		l15.01-20.61l4.37,3.18l-14.84,20.37c-1.62,2.23-2.67,4.33-3.13,6.29s-0.37,3.78,0.3,5.45c0.66,1.67,1.88,3.15,3.66,4.45
		c2.65,1.93,5.32,2.55,8,1.86c2.68-0.69,5.24-2.71,7.66-6.04l14.84-20.37l4.37,3.18l-15.01,20.61c-2.07,2.85-4.38,4.93-6.92,6.24
		c-2.54,1.32-5.16,1.84-7.87,1.58C787.81,1299,785.18,1297.94,782.63,1296.08z M807.16,1256.79l9.71-4.06l4.8,3.5l-0.18,0.24
		l-10.94,2.79L807.16,1256.79z"/>
	<path class="st0" d="M828.73,1324.44l17.88-38l12.22,5.75c3.58,1.69,6.38,3.97,8.38,6.86c2,2.89,3.09,6.13,3.25,9.72
		c0.17,3.59-0.63,7.25-2.38,10.98c-1.75,3.73-4.07,6.67-6.94,8.84s-6.06,3.39-9.56,3.69c-3.5,0.3-7.04-0.39-10.62-2.08
		L828.73,1324.44z M842.72,1325.72c2.79,1.31,5.48,1.85,8.09,1.62c2.61-0.23,4.97-1.19,7.08-2.87c2.12-1.68,3.88-4.02,5.29-7.03
		c1.41-3,2.09-5.86,2.04-8.56c-0.06-2.7-0.83-5.13-2.31-7.29s-3.62-3.89-6.41-5.2l-7.06-3.32l-13.79,29.32L842.72,1325.72z"/>
	<path class="st0" d="M893.97,1350.88l10.67-40.62l24.95,6.55l-1.22,4.64l-19.73-5.18l-8.23,31.34l20.02,5.26l-1.22,4.64
		L893.97,1350.88z M901.96,1333.44l1.22-4.64l19.73,5.18l-1.22,4.64L901.96,1333.44z"/>
	<path class="st0" d="M997.99,1366.46l-1.55-41.97l13.49-0.5c3.96-0.15,7.49,0.6,10.59,2.25c3.1,1.65,5.55,4.03,7.35,7.14
		c1.8,3.12,2.77,6.73,2.92,10.85c0.15,4.12-0.55,7.8-2.11,11.04c-1.56,3.24-3.83,5.8-6.8,7.67c-2.97,1.87-6.44,2.88-10.4,3.03
		L997.99,1366.46z M1011.01,1361.18c3.08-0.11,5.72-0.87,7.93-2.28c2.21-1.4,3.87-3.33,4.98-5.8c1.11-2.46,1.6-5.35,1.48-8.67
		c-0.12-3.32-0.83-6.16-2.12-8.54c-1.29-2.37-3.09-4.18-5.39-5.42c-2.31-1.24-5-1.8-8.08-1.68l-7.79,0.29l1.2,32.38L1011.01,1361.18
		z"/>
	<path class="st0" d="M1067.73,1359.93l-7.96-41.24l5.18-1l7.96,41.24L1067.73,1359.93z"/>
	<path class="st0" d="M1127.44,1344.17c-3.6,1.32-7.12,1.66-10.56,1c-3.44-0.66-6.51-2.22-9.21-4.7c-2.7-2.48-4.79-5.73-6.27-9.75
		c-1.46-3.98-1.98-7.79-1.54-11.42c0.43-3.63,1.76-6.83,3.99-9.58c2.23-2.76,5.22-4.82,8.97-6.2c2.7-0.99,5.33-1.42,7.87-1.29
		c2.54,0.13,4.93,0.81,7.17,2.03c2.24,1.22,4.25,2.98,6.02,5.27l-4.27,2.46c-1.89-2.37-4.15-3.9-6.76-4.58
		c-2.62-0.68-5.41-0.47-8.37,0.61c-2.85,1.05-5.08,2.59-6.67,4.62c-1.6,2.04-2.51,4.45-2.74,7.24c-0.23,2.79,0.24,5.78,1.41,8.97
		c1.2,3.27,2.8,5.88,4.79,7.83c2,1.95,4.24,3.18,6.73,3.7c2.49,0.51,5.09,0.27,7.79-0.72c2.33-0.85,4.26-2.09,5.8-3.7
		c1.54-1.61,2.53-3.49,2.98-5.63c0.45-2.15,0.24-4.4-0.63-6.77l-0.54-1.46l2.87-0.03l-12.67,4.65l-1.55-4.22l15.21-5.59l7.45,20.28
		l-3.38,1.24l-5.34-10.18l2.2-0.81c0.21,2.78-0.08,5.27-0.87,7.48s-2.02,4.08-3.69,5.61S1129.88,1343.27,1127.44,1344.17z"/>
	<path class="st0" d="M1178.53,1320.15l-20.61-36.59l4.6-2.59l20.61,36.59L1178.53,1320.15z"/>
	<path class="st0" d="M1223.41,1290.84l-22.76-29.43l-11.15,8.63l-2.94-3.8l26.58-20.56l2.94,3.8l-11.15,8.63l22.76,29.43
		L1223.41,1290.84z"/>
	<path class="st0" d="M1258.73,1260.81l-21.07-39.06l4.57-4.93l40.56,18.02l-3.71,4.01l-35.35-16.14l-0.2,0.22l18.79,34.01
		L1258.73,1260.81z M1255.09,1248.85l-2.49-3.94l13.94-15.05l4.12,2.18L1255.09,1248.85z"/>
	<path class="st0" d="M1303.52,1207.29l-35.18-22.95l2.95-4.52l31.16,20.32l10.65-16.33l4.02,2.62L1303.52,1207.29z"/>
</g>
<g>
	<path class="st0" d="M1000,1427.71c-57.74,0-113.75-11.31-166.48-33.61c-50.93-21.54-96.67-52.38-135.95-91.66
		c-39.28-39.28-70.12-85.02-91.66-135.95c-22.3-52.73-33.61-108.75-33.61-166.48s11.31-113.75,33.61-166.48
		c21.54-50.93,52.38-96.67,91.66-135.95c39.28-39.28,85.02-70.12,135.95-91.66c52.73-22.3,108.74-33.61,166.48-33.61
		c57.74,0,113.75,11.31,166.48,33.61c50.93,21.54,96.67,52.38,135.95,91.66c39.28,39.28,70.12,85.02,91.66,135.95
		c22.3,52.73,33.61,108.74,33.61,166.48s-11.31,113.75-33.61,166.48c-21.54,50.93-52.38,96.67-91.66,135.95
		c-39.28,39.28-85.02,70.12-135.95,91.66C1113.75,1416.4,1057.74,1427.71,1000,1427.71z M1000,578.48
		c-232.43,0-421.52,189.09-421.52,421.52s189.09,421.52,421.52,421.52c232.43,0,421.52-189.09,421.52-421.52
		S1232.43,578.48,1000,578.48z"/>
</g>
<g>
	<circle class="st0" cx="1343.06" cy="1000" r="9.53"/>
	<circle class="st0" cx="656.94" cy="1000" r="9.53"/>
</g>
</svg>
